<?xml version="1.0" standalone="no"?>
<!DOCTYPE svg PUBLIC "-//W3C//DTD SVG 20010904//EN"
 "http://www.w3.org/TR/2001/REC-SVG-20010904/DTD/svg10.dtd">
<svg version="1.0" xmlns="http://www.w3.org/2000/svg"
 width="448.000000pt" height="448.000000pt" viewBox="0 0 448.000000 448.000000"
 preserveAspectRatio="xMidYMid meet">
<metadata>
Created by potrace 1.14, written by Peter Selinger 2001-2017
</metadata>
<g transform="translate(0.000000,448.000000) scale(0.100000,-0.100000)"
fill="#000000" stroke="none">
<path d="M1945 3195 c-32 -16 -268 -221 -453 -393 -72 -66 -125 -124 -144
-158 -21 -39 -37 -56 -56 -60 -61 -12 -84 -33 -181 -163 -71 -94 -98 -138 -91
-146 5 -7 7 -14 4 -17 -2 -3 2 -8 10 -11 30 -12 139 76 333 266 109 107 241
230 293 273 52 43 143 120 201 170 59 51 115 95 126 98 43 14 193 -56 250
-116 17 -18 73 -116 124 -218 74 -145 106 -197 152 -246 63 -68 93 -82 135
-60 28 15 103 96 185 201 45 59 111 107 189 139 36 15 38 15 67 -10 17 -14 53
-64 79 -111 36 -66 69 -106 140 -174 51 -49 97 -89 103 -89 6 0 17 7 25 15 14
13 0 38 -119 218 -117 176 -143 210 -197 250 -34 26 -69 47 -78 47 -8 0 -34
-21 -58 -46 -37 -40 -46 -46 -71 -41 -42 8 -70 -14 -171 -133 -48 -57 -97
-109 -108 -117 -39 -25 -73 19 -191 249 -125 244 -140 262 -298 338 -116 56
-158 66 -200 45z"/>
<path d="M1844 2415 c-97 -15 -311 -61 -352 -76 -50 -19 -10 -21 83 -4 104 19
135 16 55 -4 -28 -7 -50 -17 -50 -23 0 -5 8 -7 18 -4 39 11 224 27 332 27 99
1 138 -5 270 -36 211 -50 511 -110 650 -131 147 -21 278 -15 507 25 210 37
287 65 173 63 -14 -1 5 7 42 16 37 9 70 20 74 25 11 11 -37 9 -320 -14 -347
-29 -355 -28 -1014 110 -213 45 -301 50 -468 26z m-117 -61 c-3 -3 -12 -4 -19
-1 -8 3 -5 6 6 6 11 1 17 -2 13 -5z"/>
<path d="M1298 2288 c-39 -25 -48 -36 -48 -59 0 -15 -5 -40 -10 -55 -8 -21 -8
-31 3 -42 19 -18 47 -9 86 28 29 26 31 33 31 94 0 36 -3 66 -7 65 -5 0 -29
-14 -55 -31z"/>
<path d="M1761 2306 c-6 -8 -24 -19 -39 -25 -23 -10 -30 -22 -41 -69 -7 -31
-15 -63 -18 -71 -3 -8 -1 -11 6 -7 6 4 11 2 11 -3 0 -22 37 -10 73 22 29 26
36 40 38 72 4 92 -4 113 -30 81z"/>
<path d="M1921 2190 c-24 -17 -48 -30 -53 -30 -4 0 -8 -13 -8 -29 0 -19 -8
-36 -24 -48 -28 -22 -26 -66 5 -96 13 -12 19 -31 18 -60 0 -23 -3 -37 -5 -31
-2 6 -18 8 -34 6 l-30 -4 0 87 c0 47 -5 95 -10 106 -13 23 -59 25 -99 4 -27
-13 -29 -13 -34 5 -12 47 -193 13 -232 -44 -17 -24 -20 -98 -5 -126 9 -16 6
-21 -14 -26 -40 -10 -46 1 -43 90 1 58 -2 88 -12 99 -16 20 -71 23 -89 5 -9
-9 -16 -7 -32 7 -22 20 -36 16 -90 -25 -19 -14 -22 -22 -13 -31 11 -11 -1 -69
-15 -69 -4 0 -20 28 -36 61 -34 71 -60 88 -105 69 -46 -19 -61 -41 -55 -81 4
-24 14 -40 33 -50 22 -13 34 -35 56 -104 16 -48 34 -89 41 -92 21 -8 54 16 82
60 56 86 105 148 115 144 6 -2 9 -31 8 -73 -4 -113 23 -145 107 -129 20 3 42
6 47 6 6 -1 37 -3 70 -6 50 -5 67 -2 105 18 62 33 90 75 83 130 -3 23 -12 49
-20 58 -12 14 -12 17 1 22 32 13 45 -19 44 -108 -1 -69 2 -88 17 -105 24 -27
77 -26 127 2 32 18 42 20 56 10 38 -27 62 -34 95 -28 42 8 102 47 102 66 0 8
4 21 9 28 14 22 -11 37 -62 37 l-47 0 -3 38 c-3 36 -2 38 45 58 51 22 64 35
56 55 -2 6 0 15 6 18 7 5 7 12 -1 25 -9 14 -20 17 -59 13 l-48 -4 -3 50 -3 51
-44 -29z"/>
<path d="M200 1733 c-37 -25 -40 -32 -40 -96 0 -48 4 -62 25 -82 l24 -25 -24
0 c-22 0 -25 -4 -25 -39 0 -71 0 -71 120 -71 101 0 111 2 138 25 l30 25 16
-25 c18 -28 47 -33 65 -11 8 9 11 61 9 162 l-3 149 -37 3 -38 3 0 -103 c-1
-96 -2 -101 -14 -72 -8 17 -24 39 -37 48 -19 13 -20 16 -6 16 14 0 17 10 17
55 l0 55 -98 0 c-75 0 -103 -4 -122 -17z"/>
<path d="M570 1731 c-5 -11 -10 -77 -10 -146 0 -136 8 -165 44 -165 29 0 36
16 36 80 0 27 4 52 10 55 5 3 41 -26 78 -64 114 -118 134 -100 130 111 l-3
143 -37 3 -38 3 0 -83 0 -83 -81 83 c-83 84 -110 97 -129 63z"/>
<path d="M890 1731 c-5 -11 -10 -75 -10 -143 0 -165 2 -168 116 -168 102 0
133 13 168 72 l26 43 0 -38 c0 -51 15 -77 44 -77 26 0 36 17 36 59 0 38 17 51
70 51 53 0 70 -13 70 -51 0 -15 3 -34 6 -43 9 -22 51 -20 64 3 11 21 14 268 4
295 -4 10 -18 16 -40 16 l-34 0 0 -55 0 -55 -70 0 -70 0 0 55 0 55 -34 0 c-41
0 -46 -10 -47 -93 l0 -62 -13 40 c-30 96 -62 115 -190 115 -74 0 -87 -3 -96
-19z m194 -117 c41 -40 4 -84 -71 -84 l-53 0 0 43 c0 24 3 47 7 50 13 14 101
7 117 -9z"/>
<path d="M1506 1698 c-11 -95 -7 -142 17 -188 34 -68 74 -90 164 -90 117 0
113 -6 113 175 l0 155 -34 0 c-43 0 -46 -8 -46 -127 l0 -96 -51 5 c-79 8 -83
16 -88 181 -1 35 -3 37 -35 37 -33 0 -33 -1 -40 -52z"/>
<path d="M1856 1728 c-24 -22 -26 -30 -30 -147 -5 -136 1 -161 40 -161 19 0
28 7 35 29 10 27 14 29 79 33 52 3 77 9 101 27 37 28 47 20 51 -39 3 -41 6
-45 31 -48 23 -3 29 2 38 27 11 30 13 31 69 31 54 0 60 -2 72 -27 15 -31 42
-41 63 -23 20 16 22 289 3 308 -17 17 -151 15 -191 -2 -40 -16 -87 -69 -88
-99 -1 -12 -5 -3 -11 20 -6 27 -20 51 -39 68 -27 22 -39 25 -114 25 -73 0 -87
-3 -109 -22z m177 -113 c-2 -5 -32 -11 -68 -13 -56 -2 -64 -1 -59 13 5 13 19
15 68 13 34 -2 60 -7 59 -13z m305 -2 c3 -10 -13 -13 -58 -13 -55 0 -61 2 -50
15 16 19 101 17 108 -2z"/>
<path d="M2447 1673 c-8 -118 -3 -219 12 -237 20 -23 226 -23 252 0 16 15 20
15 41 0 27 -19 197 -23 229 -5 15 7 24 7 34 -1 8 -6 24 -10 37 -8 19 2 24 10
26 43 4 49 23 65 76 65 54 0 64 -8 68 -54 6 -79 69 -75 78 5 l5 44 22 -37 c33
-56 62 -70 147 -71 55 0 82 4 101 17 30 20 55 71 55 115 0 16 4 32 9 35 8 5
19 -30 36 -121 6 -32 30 -48 56 -38 8 3 29 30 47 60 18 30 37 55 42 55 5 0 27
-26 47 -57 41 -62 74 -78 91 -46 6 10 18 56 27 103 22 110 34 131 36 65 1 -27
1 -68 0 -90 -1 -22 3 -53 8 -68 9 -23 16 -28 39 -25 24 3 28 8 32 48 7 63 28
63 94 0 46 -44 59 -51 88 -48 24 2 33 8 32 21 -1 9 5 17 14 17 10 0 -8 24 -46
63 l-62 63 50 49 c28 27 48 55 46 61 -2 7 2 21 10 33 15 21 14 21 -33 21 -46
0 -52 -3 -103 -55 -30 -30 -62 -55 -72 -55 -15 0 -18 9 -18 55 l0 55 -35 0
c-32 0 -35 -2 -35 -30 0 -16 -4 -30 -10 -30 -5 0 -10 14 -10 30 0 28 -3 30
-34 30 -37 0 -40 -3 -52 -75 -11 -68 -18 -71 -47 -22 -43 73 -66 71 -117 -11
l-27 -43 -13 75 -13 76 -38 0 -38 0 5 -57 5 -58 -19 40 c-27 55 -65 75 -147
75 -100 0 -155 -37 -155 -107 0 -17 -4 -35 -10 -38 -6 -4 -10 22 -10 69 l0 76
-40 0 -40 0 0 -55 0 -55 -70 0 -70 0 0 55 0 55 -35 0 c-32 0 -35 -2 -35 -30 0
-16 -4 -30 -10 -30 -5 0 -10 14 -10 30 l0 30 -109 0 c-101 0 -110 -2 -135 -25
-24 -22 -26 -30 -26 -110 l0 -85 -100 0 -100 0 0 110 0 110 -34 0 -33 0 -6
-77z m557 -54 c8 -42 6 -100 -4 -124 -8 -18 -9 -17 -9 8 l-1 27 -96 0 -95 0 3
48 3 47 82 5 c45 3 85 8 89 13 14 14 21 7 28 -24z m530 5 c19 -18 21 -65 4
-82 -13 -13 -106 -16 -125 -4 -12 8 -18 31 -15 65 4 35 107 51 136 21z"/>
</g>
</svg>
