<?xml version="1.0" standalone="no"?>
<!DOCTYPE svg PUBLIC "-//W3C//DTD SVG 20010904//EN"
 "http://www.w3.org/TR/2001/REC-SVG-20010904/DTD/svg10.dtd">
<svg version="1.0" xmlns="http://www.w3.org/2000/svg"
 width="603.000000pt" height="603.000000pt" viewBox="0 0 603.000000 603.000000"
 preserveAspectRatio="xMidYMid meet">
<metadata>
Created by potrace 1.14, written by Peter Selinger 2001-2017
</metadata>
<g transform="translate(0.000000,603.000000) scale(0.100000,-0.100000)"
fill="#000000" stroke="none">
<path d="M2755 3992 c-17 -3 -79 -44 -95 -61 -3 -4 -39 -35 -80 -71 -41 -36
-77 -67 -80 -70 -3 -3 -43 -39 -90 -80 -142 -124 -240 -223 -266 -266 -32 -54
-52 -70 -96 -78 -34 -6 -47 -20 -142 -146 -58 -77 -101 -142 -95 -145 5 -4 23
1 41 9 25 13 34 14 47 3 14 -10 14 -10 3 4 -10 14 -8 19 14 34 14 9 58 47 96
83 39 37 75 66 80 64 5 -1 7 1 4 6 -7 12 68 84 78 75 4 -5 6 -3 4 3 -4 15 170
186 182 179 6 -4 9 -1 8 6 -2 7 7 18 19 24 13 7 20 14 17 18 -9 8 32 27 41 19
5 -4 4 -1 0 7 -6 11 -4 13 8 8 12 -4 14 -2 10 11 -3 9 -3 14 1 11 3 -3 22 9
42 28 20 18 39 31 44 28 5 -3 12 0 16 6 5 8 2 10 -7 4 -8 -4 -2 4 13 19 15 14
33 25 40 24 7 -2 12 3 13 10 0 16 92 99 118 108 9 3 17 9 17 13 0 14 65 7 78
-8 9 -10 11 -11 6 -2 -5 11 -3 13 10 8 10 -4 20 -7 22 -7 3 0 3 -4 0 -9 -4 -5
3 -7 14 -4 11 3 20 0 20 -6 0 -6 3 -10 8 -9 13 3 72 -38 65 -46 -4 -4 -1 -4 8
-1 9 3 24 -4 36 -17 24 -26 77 -118 68 -118 -4 0 1 -7 9 -16 9 -8 14 -20 11
-25 -4 -5 -2 -9 3 -9 13 0 43 -70 36 -82 -4 -7 -2 -8 4 -4 11 6 14 0 11 -20 0
-4 3 -10 8 -13 4 -3 14 -17 21 -30 12 -20 12 -25 0 -33 -10 -8 -9 -9 4 -4 13
4 20 -2 24 -19 3 -14 10 -25 15 -25 5 0 9 -5 9 -11 0 -7 9 -20 21 -30 12 -10
18 -23 13 -30 -4 -7 -3 -9 3 -6 13 8 36 -17 25 -28 -4 -5 -1 -5 6 -1 6 4 12 3
12 -2 0 -5 14 -15 30 -22 17 -7 30 -17 30 -22 0 -6 6 -5 15 2 8 7 22 10 30 6
9 -3 14 -2 11 2 -6 10 74 88 86 85 4 -2 5 3 2 11 -3 7 6 23 20 34 14 11 26 25
26 30 0 6 6 15 13 19 8 4 27 27 42 51 15 23 30 41 32 38 2 -2 16 7 30 20 14
13 41 29 59 36 19 7 34 15 34 20 0 4 17 10 37 14 34 6 40 4 68 -28 16 -20 48
-70 69 -112 22 -42 42 -76 46 -76 3 0 19 -18 36 -40 16 -22 35 -40 43 -40 8 0
11 -6 7 -16 -3 -8 -2 -13 2 -10 13 8 83 -54 75 -67 -3 -7 -3 -9 2 -5 4 4 21 0
36 -8 l29 -15 -18 33 c-9 18 -71 113 -135 210 -91 135 -131 186 -170 216 -79
59 -94 60 -143 5 -36 -39 -46 -45 -70 -40 -48 9 -56 2 -215 -182 -35 -41 -71
-75 -80 -77 -34 -4 -73 49 -158 218 -132 257 -132 258 -182 298 -55 43 -190
115 -239 126 -48 11 -52 11 -75 6z"/>
<path d="M3707 3509 c7 -7 15 -10 18 -7 3 3 -2 9 -12 12 -14 6 -15 5 -6 -5z"/>
<path d="M3950 3455 c0 -5 5 -17 10 -25 5 -8 10 -10 10 -5 0 6 -5 17 -10 25
-5 8 -10 11 -10 5z"/>
<path d="M2136 3303 c-6 -14 -5 -15 5 -6 7 7 10 15 7 18 -3 3 -9 -2 -12 -12z"/>
<path d="M2035 3210 c-3 -5 -1 -10 4 -10 6 0 11 5 11 10 0 6 -2 10 -4 10 -3 0
-8 -4 -11 -10z"/>
<path d="M2645 3205 c-38 -7 -90 -15 -115 -19 -67 -10 -254 -57 -263 -66 -5
-4 13 -4 40 1 115 19 128 21 133 24 3 2 39 7 80 12 117 13 328 10 390 -6 30
-8 56 -14 57 -13 2 0 26 -6 55 -14 50 -14 238 -54 438 -94 30 -6 69 -13 85
-15 275 -42 288 -42 602 11 160 27 283 53 283 61 0 6 -228 -8 -360 -23 -19 -2
-100 -6 -180 -8 -153 -4 -216 4 -485 60 -455 96 -509 105 -600 103 -49 -2
-121 -8 -160 -14z"/>
<path d="M2101 3084 c-19 -13 -40 -25 -45 -27 -6 -2 -11 -19 -12 -39 -1 -19
-7 -45 -13 -56 -6 -11 -11 -23 -11 -27 0 -7 56 23 82 43 9 8 21 11 26 8 5 -3
9 0 10 7 9 77 10 107 4 111 -4 2 -23 -7 -41 -20z"/>
<path d="M2526 3078 c-42 -28 -49 -38 -52 -70 -2 -21 -8 -47 -14 -58 -11 -21
-11 -21 19 -5 18 9 31 11 31 5 0 -5 5 -10 11 -10 5 0 7 5 4 10 -4 6 8 25 27
43 30 29 33 36 28 75 l-5 42 -49 -32z"/>
<path d="M2705 2976 c-37 -26 -50 -41 -52 -61 -1 -15 -11 -34 -22 -42 -28 -19
-29 -57 -1 -50 18 5 20 0 21 -61 1 -86 3 -94 29 -130 21 -28 24 -29 63 -20 22
5 47 6 54 4 8 -3 11 -2 8 4 -3 5 4 14 15 20 11 6 20 7 20 3 0 -4 7 2 15 14 20
29 9 56 -19 46 -31 -11 -68 -7 -77 9 -9 14 -10 81 -2 112 4 15 7 16 14 5 6
-10 9 -11 9 -1 0 6 6 12 14 12 22 0 76 33 76 47 0 18 -19 26 -69 27 l-46 1 1
48 c0 26 0 47 0 47 -1 0 -23 -16 -51 -34z"/>
<path d="M2326 2908 c-116 -25 -167 -104 -111 -173 9 -11 14 -14 10 -8 -4 9
-1 11 9 7 18 -7 12 -24 -9 -24 -7 0 -15 -5 -17 -10 -2 -6 -17 -11 -33 -13 -25
-2 -30 2 -29 21 0 12 -2 22 -5 22 -3 0 -4 32 -3 70 2 45 -1 76 -8 85 -15 18
-50 19 -85 3 -21 -10 -27 -9 -39 7 -13 18 -15 17 -60 -9 -37 -22 -45 -30 -36
-41 8 -10 7 -23 -5 -50 l-15 -38 -35 71 c-26 52 -42 72 -60 76 -26 7 -72 -12
-93 -37 -16 -19 -5 -47 19 -47 21 0 43 -35 33 -52 -4 -6 -3 -8 3 -5 9 6 32
-50 53 -131 11 -42 12 -43 30 -27 10 9 20 13 22 8 3 -4 3 -3 2 4 -3 13 20 35
29 28 4 -3 5 -2 3 1 -3 3 5 22 16 42 18 33 30 48 80 102 9 10 14 21 11 23 -3
3 0 14 7 24 10 15 11 15 6 1 -3 -12 -1 -15 10 -11 13 5 14 -7 10 -77 -4 -79 6
-130 26 -130 5 0 7 -4 4 -8 -7 -11 74 1 99 15 15 9 22 8 33 -5 7 -10 10 -11 7
-4 -6 11 -3 12 12 3 11 -6 23 -7 27 -4 6 6 10 -12 7 -30 -1 -5 3 -6 9 -2 6 3
8 11 5 16 -6 8 8 12 48 12 9 0 17 4 17 9 0 5 6 8 12 6 7 -3 19 1 26 9 8 7 18
10 24 7 6 -4 8 -2 4 4 -3 6 3 17 14 25 12 8 23 30 27 49 4 28 1 39 -18 57 -12
11 -34 21 -48 21 -24 1 -22 3 14 22 22 11 43 26 47 32 5 7 12 4 22 -9 11 -14
15 -45 16 -107 0 -47 3 -94 6 -102 4 -9 23 -19 45 -22 24 -4 36 -11 32 -18 -3
-6 4 -1 16 12 12 12 26 20 31 17 4 -3 10 1 13 7 3 10 8 10 23 -2 17 -14 18
-14 6 2 -8 10 -9 18 -3 22 17 11 0 37 -23 35 -43 -3 -44 -2 -43 90 1 98 -8
121 -52 121 -15 0 -37 -7 -50 -16 -23 -17 -32 -13 -43 18 -5 12 -59 15 -102 6z
m-3 -83 c-6 -17 -25 -15 -31 3 -2 7 5 12 17 12 14 0 19 -5 14 -15z m-8 -115
c-3 -6 1 -7 9 -4 9 3 16 1 16 -5 0 -6 -11 -11 -25 -11 -16 0 -25 6 -25 15 0 8
7 15 16 15 8 0 12 -4 9 -10z"/>
<path d="M4216 2542 c-72 -9 -109 -62 -105 -155 3 -79 29 -123 79 -133 42 -8
94 -8 135 1 17 4 37 7 46 8 10 1 15 7 11 16 -4 10 -1 12 9 6 8 -4 11 -5 7 0
-4 4 -1 19 6 34 15 30 14 127 -2 157 -27 51 -97 76 -186 66z m93 -74 c8 3 11
0 7 -7 -4 -6 -2 -9 7 -5 10 3 16 -5 21 -28 4 -21 2 -34 -5 -37 -8 -2 -7 -6 2
-11 10 -7 9 -14 -5 -34 -14 -22 -24 -26 -67 -26 -76 0 -89 11 -89 74 0 69 28
92 90 76 14 -4 31 -5 39 -2z"/>
<path d="M4200 2450 c-9 -6 -10 -10 -3 -10 6 0 15 5 18 10 8 12 4 12 -15 0z"/>
<path d="M4255 2450 c3 -5 8 -10 11 -10 2 0 4 5 4 10 0 6 -5 10 -11 10 -5 0
-7 -4 -4 -10z"/>
<path d="M999 2533 c-25 -7 -50 -59 -47 -102 1 -22 5 -38 10 -35 4 3 8 1 8 -4
0 -18 54 -33 122 -33 57 -1 69 -4 66 -16 -3 -18 -35 -26 -44 -12 -3 5 -11 9
-17 9 -7 0 -6 -4 3 -10 12 -8 11 -10 -7 -10 -13 0 -23 5 -23 10 0 6 -5 10 -11
10 -5 0 -7 -4 -4 -10 3 -5 -1 -10 -9 -10 -9 0 -16 5 -16 11 0 8 -4 8 -14 -1
-8 -6 -25 -10 -38 -8 -21 3 -23 -1 -24 -38 -1 -36 1 -40 20 -38 12 1 21 3 21
4 0 6 136 3 138 -3 1 -4 21 2 44 13 66 32 76 104 20 155 -18 16 -36 20 -97 20
-62 0 -75 3 -78 17 -2 11 3 15 15 13 10 -1 17 -8 15 -15 -1 -6 2 -9 8 -5 6 3
8 11 4 16 -4 7 9 9 32 7 26 -2 38 -7 36 -16 -1 -8 2 -11 8 -7 6 3 8 11 5 16
-4 5 10 9 29 9 34 0 36 2 36 35 l0 35 -97 -1 c-54 -1 -105 -3 -114 -6z"/>
<path d="M1251 2394 c-1 -99 2 -144 9 -139 5 3 10 1 10 -5 0 -6 5 -8 13 -3 6
4 19 8 26 8 12 0 15 22 14 125 -1 69 -2 133 -2 143 -1 13 -10 17 -35 17 l-34
0 -1 -146z"/>
<path d="M1364 2528 c-4 -6 -8 -71 -9 -144 -1 -122 1 -132 17 -129 10 2 18 0
18 -6 0 -5 8 -4 19 3 16 10 18 23 17 89 -1 60 2 75 11 67 7 -6 10 -15 6 -21
-3 -5 -1 -7 4 -4 6 4 37 -22 69 -57 109 -116 127 -110 126 47 -1 184 3 167
-37 167 l-35 0 0 -82 0 -83 -83 83 c-80 79 -108 95 -123 70z"/>
<path d="M1691 2531 c-8 -5 -15 -27 -16 -48 -1 -22 -5 -45 -9 -51 -4 -7 -3
-12 2 -12 5 0 8 -32 7 -71 -2 -48 2 -74 11 -83 7 -8 10 -16 7 -20 -4 -3 -1 -6
5 -6 7 0 12 3 12 8 0 4 16 7 35 7 19 0 35 -4 35 -8 0 -5 5 -5 11 -1 7 4 31 8
55 9 24 1 52 9 62 18 15 13 21 14 32 4 12 -10 12 -9 2 4 -10 13 -9 19 1 28 9
7 15 36 16 76 2 78 -21 127 -71 144 -37 13 -177 14 -197 2z m166 -68 c13 -3
20 -9 17 -14 -3 -5 0 -9 5 -9 6 0 11 -20 11 -43 0 -59 -20 -75 -90 -73 l-55 1
0 65 c0 36 1 69 3 73 4 8 71 8 109 0z"/>
<path d="M1989 2508 c-1 -18 -2 -68 -1 -110 0 -52 -4 -78 -12 -78 -7 0 -7 -3
-1 -8 6 -4 10 -13 11 -19 1 -7 2 -19 3 -26 0 -9 14 -14 35 -14 33 0 34 1 34
41 -1 70 0 70 19 55 11 -10 14 -10 9 -1 -5 9 8 12 53 12 l61 0 0 -47 c0 -27 5
-55 10 -63 9 -13 10 -13 10 0 0 12 2 12 9 1 6 -9 10 -10 16 -2 4 8 11 9 18 2
9 -7 11 27 9 140 l-3 149 -35 0 -34 0 0 -55 0 -56 -72 3 -73 3 0 50 c0 49 -1
50 -32 53 -31 3 -33 1 -34 -30z"/>
<path d="M2298 2459 c-2 -44 -1 -83 1 -85 3 -3 6 -14 8 -27 2 -12 15 -33 28
-47 14 -15 23 -29 20 -31 -5 -6 19 -9 92 -12 29 -1 53 -6 53 -11 0 -6 5 -5 11
1 6 6 17 9 24 6 8 -2 22 0 33 6 15 8 19 20 18 58 -1 26 2 56 7 66 4 9 4 17 0
17 -4 0 -7 31 -7 70 l1 70 -33 0 c-19 0 -34 -3 -35 -7 -1 -5 -2 -53 -3 -108
l-1 -100 -54 0 c-77 1 -91 21 -91 131 l0 84 -34 0 -34 0 -4 -81z"/>
<path d="M2645 2516 c-26 -26 -26 -31 -26 -171 0 -109 -1 -109 18 -94 15 12
16 12 8 -1 -6 -12 -5 -12 5 -3 7 6 19 9 26 6 13 -5 19 19 15 55 -1 9 16 12 66
10 47 -1 78 4 99 15 30 16 52 54 49 87 -1 8 -3 25 -3 37 -1 12 -13 35 -27 51
-24 28 -28 29 -115 31 -84 2 -92 0 -115 -23z m108 -59 c-5 -9 -3 -9 8 -1 13 9
21 10 55 6 16 -3 24 -50 10 -61 -12 -10 -49 -14 -103 -12 -31 1 -33 3 -33 39
0 37 1 38 35 39 24 1 33 -3 28 -10z"/>
<path d="M3000 2524 c-60 -26 -75 -56 -78 -164 -3 -106 5 -133 34 -109 9 8 20
12 23 9 3 -3 7 10 9 28 l3 32 70 -1 c43 -1 69 -6 70 -13 1 -6 1 -21 2 -33 0
-18 5 -23 27 -23 36 0 48 16 46 63 -1 20 3 37 8 37 8 0 8 3 1 8 -6 4 -11 16
-11 27 0 11 5 23 11 27 7 5 6 8 -1 8 -6 0 -10 18 -9 46 2 28 -3 50 -12 60 -19
19 -146 18 -193 -2z m138 -73 c3 -8 0 -11 -6 -7 -6 3 -14 2 -17 -4 -4 -6 -1
-9 6 -8 6 2 12 -7 14 -19 2 -25 -10 -27 -100 -23 -48 2 -49 3 -41 34 4 17 11
23 22 19 8 -3 14 -2 13 3 -3 20 3 23 53 20 32 -1 53 -7 56 -15z"/>
<path d="M3239 2448 c0 -51 -1 -114 -2 -140 -1 -26 2 -46 8 -45 6 1 9 -3 8 -8
-1 -6 7 -12 18 -12 11 -1 18 1 15 5 -5 9 121 8 130 -1 4 -4 14 -1 22 6 13 10
14 9 7 -3 -6 -12 -5 -12 5 -3 8 7 21 9 34 3 21 -8 22 -6 17 33 l-6 41 -92 -2
-93 -1 0 109 0 110 -35 0 -35 0 -1 -92z"/>
<path d="M3559 2533 c-29 -8 -46 -55 -47 -138 -2 -93 9 -121 56 -141 39 -16
45 -17 39 -6 -3 4 24 7 59 7 63 0 84 -11 67 -37 -4 -7 -1 -8 6 -4 7 5 10 14 7
22 -3 7 -1 16 4 19 4 3 11 -1 13 -7 4 -9 6 -9 7 2 1 8 3 22 5 31 6 33 -11 40
-101 42 l-89 2 0 73 0 73 35 -3 c23 -2 34 -8 32 -16 -1 -8 2 -11 8 -7 6 3 8
10 6 14 -3 4 8 8 25 9 19 0 27 -3 23 -10 -5 -7 -2 -8 7 -2 8 4 20 9 27 10 17
3 20 6 22 24 7 49 6 50 -97 49 -54 -1 -105 -3 -114 -6z"/>
<path d="M3799 2508 c-4 -140 -3 -255 4 -251 4 2 7 -1 7 -6 0 -13 22 -10 32 4
5 6 8 5 8 -3 0 -7 5 -10 10 -7 6 3 10 31 10 61 l0 54 69 0 70 0 3 -52 c3 -50
4 -53 33 -55 16 -1 32 2 35 7 4 7 5 239 1 273 -1 5 -16 7 -33 5 -35 -3 -34 -2
-37 -80 -1 -28 -2 -28 -71 -28 l-70 0 -1 38 c-1 20 -2 45 -2 55 0 13 -8 17
-33 17 -31 0 -34 -2 -35 -32z"/>
<path d="M4427 2533 c-2 -5 1 -34 8 -65 8 -41 8 -58 1 -58 -7 0 -6 -3 1 -8 12
-7 16 -24 29 -108 3 -24 11 -42 18 -41 6 1 10 -5 8 -13 -3 -11 1 -10 16 3 11
10 22 15 24 10 3 -4 4 -3 2 4 -1 6 4 19 12 30 9 10 12 12 8 4 -4 -9 -3 -12 4
-7 6 4 9 13 6 21 -4 8 1 18 10 21 9 3 14 9 11 13 -2 4 3 18 12 31 l16 23 23
-39 c13 -22 22 -45 19 -52 -3 -7 0 -10 5 -7 6 3 13 -2 17 -12 12 -31 27 -41
50 -32 23 8 34 32 39 85 1 18 8 61 15 96 21 112 21 108 -16 108 -37 0 -39 -3
-50 -80 -11 -70 -17 -73 -49 -20 -16 27 -35 51 -42 54 -19 7 -53 -22 -75 -66
-24 -47 -33 -40 -42 32 -8 68 -16 80 -47 80 -16 0 -31 -3 -33 -7z"/>
<path d="M4819 2523 c0 -10 -1 -73 -2 -141 -2 -116 -1 -123 18 -127 40 -8 56
-2 54 19 -4 57 2 86 17 86 20 0 125 -101 117 -114 -3 -5 -1 -6 5 -2 6 3 27 7
47 8 20 1 38 4 40 8 2 4 -19 29 -48 57 -84 79 -83 75 -41 117 20 20 41 33 47
29 5 -3 7 -1 4 4 -4 6 5 23 20 39 l27 29 -44 3 c-41 3 -46 0 -99 -52 -31 -31
-64 -56 -74 -56 -16 0 -20 17 -20 93 0 13 -8 17 -33 17 -25 0 -34 -4 -35 -17z"/>
<path d="M4610 2349 c0 -5 5 -7 10 -4 6 3 10 8 10 11 0 2 -4 4 -10 4 -5 0 -10
-5 -10 -11z"/>
<path d="M2765 2290 c-3 -6 1 -7 9 -4 18 7 21 14 7 14 -6 0 -13 -4 -16 -10z"/>
<path d="M3085 2290 c-3 -6 1 -7 9 -4 18 7 21 14 7 14 -6 0 -13 -4 -16 -10z"/>
<path d="M1875 2239 c-4 -6 -5 -12 -2 -15 2 -3 7 2 10 11 7 17 1 20 -8 4z"/>
<path d="M1010 2229 c0 -5 5 -7 10 -4 6 3 10 8 10 11 0 2 -4 4 -10 4 -5 0 -10
-5 -10 -11z"/>
<path d="M1747 2229 c7 -7 15 -10 18 -7 3 3 -2 9 -12 12 -14 6 -15 5 -6 -5z"/>
<path d="M2030 2231 c0 -6 4 -13 10 -16 6 -3 7 1 4 9 -7 18 -14 21 -14 7z"/>
<path d="M2467 2229 c7 -7 15 -10 18 -7 3 3 -2 9 -12 12 -14 6 -15 5 -6 -5z"/>
<path d="M3170 2230 c0 -5 5 -10 11 -10 5 0 7 5 4 10 -3 6 -8 10 -11 10 -2 0
-4 -4 -4 -10z"/>
<path d="M3310 2229 c0 -5 5 -7 10 -4 6 3 10 8 10 11 0 2 -4 4 -10 4 -5 0 -10
-5 -10 -11z"/>
<path d="M3630 2229 c0 -5 5 -7 10 -4 6 3 10 8 10 11 0 2 -4 4 -10 4 -5 0 -10
-5 -10 -11z"/>
<path d="M4295 2230 c3 -5 8 -10 11 -10 2 0 4 5 4 10 0 6 -5 10 -11 10 -5 0
-7 -4 -4 -10z"/>
</g>
</svg>
